<?xml version="1.0" encoding="UTF-8" standalone="no"?>
<svg
   enable-background="new 0 0 512 512"
   id="Layer_1"
   version="1.1"
   viewBox="0 0 512 512"
   xml:space="preserve"
   sodipodi:docname="bar.svg"
   inkscape:version="1.2.2 (b0a8486541, 2022-12-01)"
   xmlns:inkscape="http://www.inkscape.org/namespaces/inkscape"
   xmlns:sodipodi="http://sodipodi.sourceforge.net/DTD/sodipodi-0.dtd"
   xmlns="http://www.w3.org/2000/svg"
   xmlns:svg="http://www.w3.org/2000/svg"><defs
     id="defs11" /><sodipodi:namedview
     id="namedview9"
     pagecolor="#ffffff"
     bordercolor="#999999"
     borderopacity="1"
     inkscape:showpageshadow="0"
     inkscape:pageopacity="0"
     inkscape:pagecheckerboard="0"
     inkscape:deskcolor="#d1d1d1"
     showgrid="false"
     inkscape:zoom="1.6601562"
     inkscape:cx="197.57176"
     inkscape:cy="256"
     inkscape:window-width="1920"
     inkscape:window-height="1035"
     inkscape:window-x="0"
     inkscape:window-y="21"
     inkscape:window-maximized="1"
     inkscape:current-layer="Layer_1" /><g
     id="g6"
     style="fill:#000000"><path
       d="M306.9,122.6c0.1-1.4,0.4-2.8,0.4-4.2c0-24.5-19.9-44.4-44.4-44.4s-44.4,19.9-44.4,44.4   c0,1.5,0.3,2.8,0.4,4.2H306.9z"
       fill="#303A3F"
       id="path2"
       style="fill:#000000" /><path
       d="M457.6-0.8h-64.9c-7.9,0-15.1,4.7-18.3,12L320.1,136H52.4c-16,0-24,19.3-12.7,30.7l170.9,170.9v144.2h-68.8   c-8.5,0-15.5,7-15.5,15.5c0,8.5,7,15.5,15.5,15.5h168c8.5,0,15.5-7,15.5-15.5c0-8.5-7-15.5-15.5-15.5h-68.8V337.5L412,166.6   c11.3-11.3,3.3-30.7-12.7-30.7h-35.7l42.2-96.8h51.8c11,0,20-8.9,20-20C477.6,8.2,468.7-0.8,457.6-0.8z"
       fill="#303A3F"
       id="path4"
       style="fill:#000000" /></g></svg>
