<?xml version="1.0" encoding="UTF-8" standalone="no"?>
<svg
   id="flag-icons-us"
   viewBox="0 0 640 480"
   version="1.1"
   sodipodi:docname="??.svg"
   inkscape:version="1.3 (0e150ed6c4, 2023-07-21)"
   xmlns:inkscape="http://www.inkscape.org/namespaces/inkscape"
   xmlns:sodipodi="http://sodipodi.sourceforge.net/DTD/sodipodi-0.dtd"
   xmlns="http://www.w3.org/2000/svg"
   xmlns:svg="http://www.w3.org/2000/svg">
  <defs
     id="defs4" />
  <sodipodi:namedview
     id="namedview4"
     pagecolor="#ffffff"
     bordercolor="#999999"
     borderopacity="1"
     inkscape:showpageshadow="0"
     inkscape:pageopacity="0"
     inkscape:pagecheckerboard="0"
     inkscape:deskcolor="#d1d1d1"
     inkscape:zoom="1.8295363"
     inkscape:cx="391.356"
     inkscape:cy="277.93928"
     inkscape:window-width="2560"
     inkscape:window-height="1035"
     inkscape:window-x="0"
     inkscape:window-y="21"
     inkscape:window-maximized="1"
     inkscape:current-layer="flag-icons-us" />
  <rect
     style="fill:#003399;fill-rule:evenodd;stroke-width:2.59276;stroke-linecap:square;stroke-linejoin:round;paint-order:markers stroke fill"
     id="rect4"
     width="640"
     height="480"
     x="0"
     y="0" />
  <path
     style="font-size:377.089px;line-height:1.25;font-family:OfficinaSanITCBoo;-inkscape-font-specification:OfficinaSanITCBoo;text-align:center;word-spacing:0px;text-anchor:middle;fill:#ffffff;stroke-width:1.964"
     d="m 122.59391,314.85217 q 6.41051,0 12.06684,2.63962 5.65634,2.26253 9.80432,6.7876 4.52507,4.14798 6.7876,10.1814 2.63962,5.65634 2.63962,12.44394 0,13.19812 -9.42722,22.24825 -9.05014,9.42723 -22.24825,9.42723 -13.19812,0 -22.625341,-9.42723 -9.427225,-9.42722 -9.427225,-22.62534 0,-13.19811 9.427225,-22.24825 9.427221,-9.42722 23.002431,-9.42722 z m 18.85445,-48.26739 q 0,5.27924 -1.50836,6.7876 -1.13127,1.13127 -6.03342,1.13127 h -26.77332 q -5.27925,0 -6.7876,-1.13127 -1.13127,-1.50836 -1.13127,-6.7876 v -47.13613 q 0,-4.14798 1.50836,-5.65633 1.50835,-1.50836 7.16469,-3.01671 49.02157,-10.5585 49.02157,-39.21726 0,-13.19811 -9.42723,-19.98572 -9.05014,-7.16469 -26.01914,-7.16469 -9.80431,0 -18.85445,2.26254 -8.673046,2.26253 -22.625339,8.29596 -3.3938,1.50835 -4.525067,1.88544 -1.131267,0.37709 -1.885445,0.37709 -2.639623,0 -3.77089,-3.77089 l -9.804314,-25.64205 q -0.754178,-2.26254 -0.754178,-4.14798 0,-3.3938 6.787602,-7.16469 6.787602,-4.14798 17.346093,-7.16469 10.558492,-3.3938 22.625338,-5.65634 12.06685,-2.26253 23.00243,-2.26253 16.969,0 30.54421,5.27925 13.95229,4.90215 23.7566,14.32938 9.80432,9.05013 15.08356,22.24825 5.27925,12.82102 5.27925,28.65876 0,35.82345 -29.03585,54.6779 -6.03343,4.14798 -13.57521,7.16469 -7.16469,3.01672 -19.60862,7.1647 z m 169.69004,48.26739 q 6.41051,0 12.06685,2.63962 5.65633,2.26253 9.80431,6.7876 4.52507,4.14798 6.78761,10.1814 2.63962,5.65634 2.63962,12.44394 0,13.19812 -9.42723,22.24825 -9.05013,9.42723 -22.24825,9.42723 -13.19811,0 -22.62534,-9.42723 -9.42722,-9.42722 -9.42722,-22.62534 0,-13.19811 9.42722,-22.24825 9.42723,-9.42722 23.00243,-9.42722 z m 18.85445,-48.26739 q 0,5.27924 -1.50835,6.7876 -1.13127,1.13127 -6.03343,1.13127 h -26.77332 q -5.27924,0 -6.7876,-1.13127 -1.13127,-1.50836 -1.13127,-6.7876 v -47.13613 q 0,-4.14798 1.50836,-5.65633 1.50836,-1.50836 7.16469,-3.01671 49.02157,-10.5585 49.02157,-39.21726 0,-13.19811 -9.42722,-19.98572 -9.05014,-7.16469 -26.01915,-7.16469 -9.80431,0 -18.85444,2.26254 -8.67305,2.26253 -22.62534,8.29596 -3.3938,1.50835 -4.52507,1.88544 -1.13127,0.37709 -1.88545,0.37709 -2.63962,0 -3.77089,-3.77089 l -9.80431,-25.64205 q -0.75418,-2.26254 -0.75418,-4.14798 0,-3.3938 6.7876,-7.16469 6.78761,-4.14798 17.3461,-7.16469 10.55849,-3.3938 22.62534,-5.65634 12.06684,-2.26253 23.00242,-2.26253 16.96901,0 30.54421,5.27925 13.9523,4.90215 23.75661,14.32938 9.80431,9.05013 15.08356,22.24825 5.27924,12.82102 5.27924,28.65876 0,35.82345 -29.03585,54.6779 -6.03342,4.14798 -13.5752,7.16469 -7.16469,3.01672 -19.60863,7.1647 z m 169.69005,48.26739 q 6.41051,0 12.06684,2.63962 5.65634,2.26253 9.80432,6.7876 4.52507,4.14798 6.7876,10.1814 2.63962,5.65634 2.63962,12.44394 0,13.19812 -9.42722,22.24825 -9.05014,9.42723 -22.24825,9.42723 -13.19812,0 -22.62534,-9.42723 -9.42723,-9.42722 -9.42723,-22.62534 0,-13.19811 9.42723,-22.24825 9.42722,-9.42722 23.00243,-9.42722 z m 18.85445,-48.26739 q 0,5.27924 -1.50836,6.7876 -1.13127,1.13127 -6.03342,1.13127 h -26.77332 q -5.27925,0 -6.7876,-1.13127 -1.13127,-1.50836 -1.13127,-6.7876 v -47.13613 q 0,-4.14798 1.50836,-5.65633 1.50835,-1.50836 7.16469,-3.01671 49.02156,-10.5585 49.02156,-39.21726 0,-13.19811 -9.42722,-19.98572 -9.05014,-7.16469 -26.01914,-7.16469 -9.80431,0 -18.85445,2.26254 -8.67305,2.26253 -22.62534,8.29596 -3.3938,1.50835 -4.52507,1.88544 -1.13126,0.37709 -1.88544,0.37709 -2.63963,0 -3.77089,-3.77089 l -9.80432,-25.64205 q -0.75417,-2.26254 -0.75417,-4.14798 0,-3.3938 6.7876,-7.16469 6.7876,-4.14798 17.34609,-7.16469 10.55849,-3.3938 22.62534,-5.65634 12.06685,-2.26253 23.00243,-2.26253 16.969,0 30.54421,5.27925 13.95229,4.90215 23.7566,14.32938 9.80432,9.05013 15.08356,22.24825 5.27925,12.82102 5.27925,28.65876 0,35.82345 -29.03585,54.6779 -6.03343,4.14798 -13.57521,7.16469 -7.16469,3.01672 -19.60862,7.1647 z"
     id="text4"
     aria-label="???" />
</svg>
